<svg width="241" height="138" viewBox="0 0 241 138" fill="none" xmlns="http://www.w3.org/2000/svg">
<path d="M239.598 137.113H0C1.20416 114.917 19.5284 97.2782 42.0234 97.2782C49.0987 97.2782 55.7545 99.0421 61.6093 102.123C72.1769 75.6998 97.9945 57.0247 128.191 57.0247C129.329 57.0247 130.458 57.058 131.583 57.1109C148.274 23.2811 183.097 0 223.372 0C228.69 0 234.131 0.607735 239.598 1.76276V137.113Z" fill="url(#paint0_linear_2_1229)"/>
<path d="M239.597 11.7078C232.201 11.0555 226.878 10.6983 223.373 10.6983C188.236 10.6983 156.74 30.2967 141.176 61.8429" stroke="#EBB548" stroke-width="1.40598" stroke-miterlimit="10" stroke-linecap="round" stroke-linejoin="round"/>
<path d="M141.176 61.8429L138.082 68.1177L131.093 67.796" stroke="#EBB548" stroke-width="1.40598" stroke-miterlimit="10" stroke-linecap="round" stroke-linejoin="round"/>
<path d="M131.093 67.796C130.13 67.7518 129.163 67.7363 128.191 67.7223C92.7443 67.2068 73.2279 97.8622 67.1644 109.355C65.9984 111.564 63.2772 112.417 61.0699 111.246C56.6698 108.913 49.2185 105.752 41.6042 106.083C27.1381 106.712 17.8336 116.552 12.8821 127.468" stroke="#EBB548" stroke-width="1.40598" stroke-miterlimit="10" stroke-linecap="round" stroke-linejoin="round"/>
<path d="M12.8821 127.468L239.597 126.481" stroke="#EBB548" stroke-width="1.40598" stroke-miterlimit="10" stroke-linecap="round" stroke-linejoin="round"/>
<defs>
<linearGradient id="paint0_linear_2_1229" x1="239.598" y1="68.5565" x2="-0.00037131" y2="68.5565" gradientUnits="userSpaceOnUse">
<stop stop-color="#FFE4BC"/>
<stop offset="1" stop-color="white"/>
</linearGradient>
</defs>
</svg>
